HIERARCHY
ROOT hip
{
	OFFSET 0.000000 0.000000 0.000000 
	CHANNELS 6 Xposition Yposition Zposition Xrotation Zrotation Yrotation
	JOINT abdomen
	{
		OFFSET 0.000000 3.402643 0.000000 
		CHANNELS 3 Xrotation Zrotation Yrotation
		JOINT chest
		{
			OFFSET 0.000000 8.438565 -0.680529 
			CHANNELS 3 Xrotation Zrotation Yrotation
			JOINT neck
			{
				OFFSET 0.000000 10.207942 -0.272212 
				CHANNELS 3 Xrotation Zrotation Yrotation
				JOINT head
				{
					OFFSET 0.000000 3.130431 0.000000 
					CHANNELS 3 Xrotation Zrotation Yrotation
					End Site
					{
						OFFSET 0.000000 3.130435 0.000000 
					}
				}
			}
			JOINT lCollar
			{
				OFFSET 3.470700 6.669187 -0.816635 
				CHANNELS 3 Yrotation Zrotation Xrotation
				JOINT lShldr
				{
					OFFSET 3.198488 0.000000 0.000000 
					CHANNELS 3 Zrotation Yrotation Xrotation
					JOINT lForeArm
					{
						OFFSET 10.139888 0.000000 0.000000 
						CHANNELS 3 Yrotation Zrotation Xrotation
						JOINT lHand
						{
							OFFSET 8.370511 0.000000 0.000000 
							CHANNELS 3 Zrotation Yrotation Xrotation
							End Site
							{
								OFFSET 4.083176 0.000000 0.000000 
							}
						}
					}
				}
			}
			JOINT rCollar
			{
				OFFSET -3.470700 6.669187 -0.816635 
				CHANNELS 3 Yrotation Zrotation Xrotation
				JOINT rShldr
				{
					OFFSET -3.198488 0.000000 0.000000 
					CHANNELS 3 Zrotation Yrotation Xrotation
					JOINT rForeArm
					{
						OFFSET -10.139888 0.000000 0.000000 
						CHANNELS 3 Yrotation Zrotation Xrotation
						JOINT rHand
						{
							OFFSET -8.370511 0.000000 0.000000 
							CHANNELS 3 Zrotation Yrotation Xrotation
							End Site
							{
								OFFSET -4.083176 0.000000 0.000000 
							}
						}
					}
				}
			}
		}
	}
	JOINT lThigh
	{
		OFFSET 5.308129 -1.633274 1.361059 
		CHANNELS 3 Xrotation Zrotation Yrotation
		JOINT lShin
		{
			OFFSET -2.041588 -20.007561 0.000000 
			CHANNELS 3 Xrotation Zrotation Yrotation
			JOINT lFoot
			{
				OFFSET 0.000000 -19.190928 -1.224953 
				CHANNELS 3 Xrotation Yrotation Zrotation
				End Site
				{
					OFFSET 0.000000 -2.449906 4.627600 
				}
			}
		}
	}
	JOINT rThigh
	{
		OFFSET -5.308129 -1.633274 1.361059 
		CHANNELS 3 Xrotation Zrotation Yrotation
		JOINT rShin
		{
			OFFSET 2.041588 -20.007561 0.000000 
			CHANNELS 3 Xrotation Zrotation Yrotation
			JOINT rFoot
			{
				OFFSET 0.000000 -19.190928 -1.224953 
				CHANNELS 3 Xrotation Yrotation Zrotation
				End Site
				{
					OFFSET 0.000000 -2.449906 4.627600 
				}
			}
		}
	}
}
MOTION
Frames: 8
Frame Time: 0.011111
-5.935996 52.127907 18.181889 5.314896 17.146088 -100.471352 50.225746 4.642757 6.071350 -25.504354 -3.971482 0.324659 -6.749239 0.744330 2.146665 -17.761833 -8.516373 5.286304 -4.639579 -2.584670 0.232935 -81.075989 6.381472 -66.762985 -35.779289 3.116846 2.973476 8.524705 12.647240 -105.628311 2.212703 6.201041 0.507338 52.545975 4.948222 -21.960720 85.471222 -2.330267 27.256989 -8.534408 -12.637552 111.829941 -33.764343 8.094190 -2.096345 39.010674 -4.722450 -5.996481 -18.973452 -2.030780 -3.481068 -15.075438 -7.626279 10.976763 83.829834 -0.331035 9.562137 -27.689850 -1.403796 1.254700 
-5.980925 52.060509 18.176353 6.051878 18.111439 -99.798615 49.460274 5.622165 7.036799 -25.407278 -4.248497 0.417223 -6.955895 0.962956 2.262971 -17.585024 -9.123507 5.689874 -4.639579 -2.584670 0.232935 -81.180962 7.656669 -74.970276 -35.540024 3.012901 2.888304 8.524705 12.647240 -110.794327 2.212703 6.201041 0.507338 52.422714 4.277391 -22.402605 85.408463 -2.415024 27.141626 -8.534408 -12.637552 112.406113 -35.504356 8.427107 -3.687928 39.771973 -4.670057 -6.084141 -19.497608 -1.774005 -3.357937 -11.550081 -7.430651 11.220916 75.808945 0.771586 9.223858 -28.814857 -3.240775 0.157221 
-6.029241 51.909100 18.162502 6.657127 18.997723 -99.263977 48.568790 6.431656 7.856183 -25.270931 -4.495535 0.523092 -7.055739 1.213386 2.426268 -17.515400 -9.632475 6.151974 -4.639579 -2.584670 0.232935 -81.220245 9.055964 -80.144798 -35.550079 3.020276 2.894773 8.524705 12.647240 -112.298233 2.212703 6.201041 0.507338 52.342495 3.520663 -22.778332 85.391403 -2.438731 27.120266 -8.534408 -12.637552 112.806503 -37.304428 8.642412 -4.966413 40.977333 -4.582353 -6.227014 -20.382587 -1.736135 -3.316542 -8.202081 -7.391972 11.664450 67.609421 1.817713 8.715413 -29.567083 -5.641844 -1.190871 
-6.042166 51.664444 18.135113 7.147324 19.790552 -98.866837 47.590340 7.154786 8.292597 -25.242338 -4.728129 0.557326 -6.630186 1.658250 2.692299 -18.026758 -10.061076 6.936626 -4.639579 -2.584670 0.232935 -81.232269 10.467746 -84.210686 -35.669548 3.068360 2.934427 8.524705 12.647240 -111.966202 2.212703 6.201041 0.507338 52.285400 2.686845 -22.773079 85.420555 -2.400518 27.172617 -8.534408 -12.637552 113.060410 -39.111305 8.826558 -5.912805 42.321220 -4.459134 -6.386309 -21.334528 -1.874302 -3.316049 -5.280900 -7.458700 12.351079 59.467186 2.784680 8.078671 -31.200230 -5.348500 -1.452444 
-5.989851 51.359169 18.075718 7.326967 20.390408 -98.748772 46.731384 7.408835 8.403282 -25.370155 -4.842270 0.596049 -6.048650 2.017025 3.009947 -18.673279 -10.226904 7.745404 -4.639579 -2.584670 0.232935 -80.937424 11.752083 -87.986885 -35.808880 3.123003 2.981631 8.524705 12.647240 -111.526741 2.212703 6.201041 0.507338 52.389519 1.948827 -22.793386 85.477043 -2.322586 27.267212 -8.534408 -12.637552 113.353378 -40.720741 8.925542 -6.364192 43.613182 -4.367868 -6.512373 -22.014784 -2.192147 -3.409844 -2.681336 -7.843417 13.229311 51.571861 3.615375 7.357336 -31.369514 -4.402066 -0.997213 
-5.958461 51.164680 18.005861 6.937114 20.709032 -99.024826 46.161034 6.836493 8.681783 -25.311569 -4.926522 0.783360 -6.400746 1.971900 3.137324 -18.559717 -10.072456 7.955736 -4.639579 -2.584670 0.232935 -79.578087 12.530057 -90.136917 -35.958591 3.184111 3.026465 8.524705 12.647240 -111.780655 2.212703 6.201041 0.507338 53.110893 1.573240 -23.827553 85.556480 -2.213947 27.413586 -8.534408 -12.637552 113.411972 -41.564915 8.739295 -6.115026 44.520729 -4.279986 -6.615124 -22.437489 -2.556665 -3.550154 -0.778954 -8.701596 14.242883 44.235710 4.299589 6.569223 -29.851358 -2.358147 0.408893 
-5.939073 51.084969 17.936005 6.210741 20.641539 -99.711868 45.811573 5.841208 8.189392 -25.438597 -4.842406 0.846738 -6.189812 2.324556 3.422554 -18.704609 -10.146078 8.676497 -4.639579 -2.584670 0.232935 -78.533081 13.208776 -91.683075 -36.128204 3.251586 3.078531 8.524705 12.647240 -111.839249 2.212703 6.201041 0.507338 53.819595 1.461252 -24.099909 85.645226 -2.089542 27.600613 -8.534408 -12.637552 113.109238 -41.446365 8.534100 -5.218781 44.806740 -4.250789 -6.648092 -22.536495 -2.871800 -3.683324 0.634956 -9.734520 15.183087 37.764893 4.807849 5.818817 -27.951883 0.515667 2.179811 
-5.851983 51.030807 17.834761 5.155005 20.127996 -100.835075 45.448967 4.388180 7.362647 -26.259832 -4.454906 0.941479 -3.490253 2.435401 3.773603 -20.287981 -10.113566 9.511637 -4.639579 -2.584670 0.232935 -77.653954 14.656325 -92.321243 -36.198406 3.286109 3.103452 8.524705 12.647240 -111.897842 2.212703 6.201041 0.507338 54.212524 0.424608 -23.688250 85.740417 -1.946885 27.807800 -8.534408 -12.637552 112.718613 -40.629158 8.270640 -3.832863 44.658131 -4.270395 -6.642557 -22.387873 -3.105298 -3.777752 1.660532 -10.897521 16.107159 32.531414 5.159746 5.170873 -28.063745 2.483415 3.179479 
